<?xml version="1.0" encoding="utf-8"?>
<!-- Generator: Adobe Illustrator 27.9.0, SVG Export Plug-In . SVG Version: 6.00 Build 0)  -->
<svg version="1.1" id="Layer_2_00000180355591312047519030000016253162760400591546_"
	 xmlns="http://www.w3.org/2000/svg" xmlns:xlink="http://www.w3.org/1999/xlink" x="0px" y="0px" viewBox="0 0 231.2 32.3"
	 style="enable-background:new 0 0 231.2 32.3;" xml:space="preserve">
<style type="text/css">
	.st0{fill:#3744B9;}
</style>
<g id="Layer_1-2">
	<path class="st0" d="M26.7,1.7c-1.8,0-1.1,0.8-2.3,0.8c-1.3,0-2.7-2.5-6.7-2.5C7,0,0,10.9,0,20.7c0,5.1,2.4,9.7,6.7,11.6h9
		c2.6-1,4.9-2.8,6.7-5l-1.4-1.3c-2.3,2.5-5.3,5-8.9,5c-5.1,0-7.2-4.5-7.2-9C4.8,14.8,8.7,1.9,18,1.9c1.2,0,2.7,0.5,3.6,1.6
		c2.2,2.7,0.8,6.3,3,6.3h1.1l2.1-8C27.8,1.7,26.7,1.7,26.7,1.7z"/>
	<path class="st0" d="M46.8,16.9c0.2-0.9,0.4-1.6,0.4-2.5c0-2.6-1.7-4-4.2-4c-3,0-5.9,1.2-8.3,2.8l3.3-12.4L31.5,1
		c0,0.4-0.3,1-0.3,1.1c0,0.7,1.5,0.4,1.5,1.6c0,0.4-0.1,0.6-0.2,1l-7.4,27.6v0h4.3v0l3.9-14.4c0.3-1.2,0.6-2.3,1.6-3.1
		c1.3-1.1,4-2.3,5.7-2.3c1.4,0,2.2,0.9,2.2,2.2c0,0.7-0.2,1.4-0.3,2.1l-2.9,10.6c-0.1,0.6-0.6,2.1-0.6,2.7c0,1,0.4,1.6,1,2.1h4.4
		c1.3-0.6,2.4-1.5,2.4-1.8c0-0.4-0.5-0.9-0.6-1.2c-0.5,0.5-1.3,1.3-2,1.3c-0.4,0-0.8-0.4-0.8-0.9c0-0.4,0.3-1.2,0.3-1.7
		C43.7,28.1,46.8,16.9,46.8,16.9z"/>
	<path class="st0" d="M61,30.8c-3.8,0-5.7-2.6-5.7-6.2c0-0.6,0-1.2,0.1-1.9h5C62.8,22.7,71,21,71,15c0-3.4-3.3-4.6-6.3-4.6
		c-7.2,0-14,6.7-14,13.9c0,3.9,2.4,6.8,5.7,8h7c2.2-0.7,4.2-2,6-3.6l-1.3-1.2C66.2,29.2,63.7,30.8,61,30.8z M64.3,11.8
		c1.7,0,2.8,1.1,2.8,2.8c0,5.4-7.9,6.4-8.3,6.4h-3C56.3,17.2,59.9,11.8,64.3,11.8z"/>
	<path class="st0" d="M79.8,30.6c-0.9,0-1.2-0.7-1.2-1.6c0-0.6,0.2-1.4,0.3-2l7-26.2L79.8,1c0,0.4-0.3,1-0.3,1.1
		c0,0.7,1.5,0.4,1.5,1.6c0,0.4-0.1,0.6-0.2,1l-5.8,21.5c-0.3,1-0.5,2.2-0.5,3.3c0,1.2,0.6,2.2,1.5,2.8h4.5c1.1-0.5,1.8-1.1,1.8-1.5
		c0-0.3-0.4-0.9-0.6-1.1C81.2,30,80.6,30.6,79.8,30.6z"/>
	<path class="st0" d="M95.7,10.9l1.5-5.5c0.1-0.4-0.3-0.3-0.4-0.3l-1.2,0.2c-2.7,0.4-2.5,0.1-3.1,2.5c-1.2,4.7-3.1,2.2-3.5,3.9
		l-0.3,1.1H91l-3.8,14.1c-0.2,0.8-0.5,2-0.5,2.7c0,1.2,0.6,2,1.4,2.5h5.2c0.9-0.3,1.6-0.7,1.6-1.2c0-0.2-0.4-0.9-0.5-1.1
		c-0.6,0.3-1.2,0.6-1.9,0.6c-0.8,0-1.6-0.5-1.6-1.3c0-0.4,0.3-1.3,0.4-1.8l3.9-14.6h4.2l0.6-2C99.9,10.9,95.7,10.9,95.7,10.9z"/>
	<path class="st0" d="M109.3,30.8c-3.8,0-5.7-2.6-5.7-6.2c0-0.6,0-1.2,0.1-1.9h5c2.3,0,10.5-1.8,10.5-7.7c0-3.4-3.3-4.6-6.3-4.6
		C105.8,10.4,99,17,99,24.3c0,3.9,2.4,6.8,5.7,8h6.9c2.2-0.7,4.2-2,6-3.6l-1.3-1.2C114.5,29.2,112,30.8,109.3,30.8z M112.6,11.8
		c1.7,0,2.8,1.1,2.8,2.8c0,5.4-7.9,6.4-8.3,6.4h-3C104.6,17.2,108.3,11.8,112.6,11.8z"/>
	<path class="st0" d="M140.8,30.6c-0.5,0-0.9-0.5-0.9-1c0-0.5,0.3-1.2,0.4-1.6l2.9-10.4c0.2-0.9,0.5-2.1,0.5-3.1c0-2.5-2.3-4-4.6-4
		c-3,0-5.6,1.2-8,3l0.4-1.4c0.1-0.3,0.3-1.2,0.3-1.4c0-0.1-0.1-0.2-0.2-0.2c-0.2,0-1.6,0.6-3.7,0.9l-2.9,0.4
		c-0.1,0.3-0.3,0.8-0.3,1.1c0,0.7,1.7,0.4,1.7,1.6c0,0.4,0,0.5-0.2,0.9l-4.5,16.9v0h4.2v0l3.6-13.4c0.4-1.2,0.6-2.7,1.6-3.6
		c1.4-1.2,3.9-2.6,5.9-2.6c1.4,0,2.2,0.9,2.2,2.3c0,0.7-0.1,1.1-0.4,1.8l-2.7,10.2c-0.3,0.9-0.5,1.9-0.5,2.9c0,1.1,0.4,1.9,1.2,2.4
		h4.3c1.2-0.5,2.3-1.3,2.3-2c0-0.2-0.5-0.9-0.6-1C142.5,29.7,141.5,30.6,140.8,30.6z"/>
	<path class="st0" d="M168.4,16.9c0.2-0.9,0.4-1.6,0.4-2.5c0-2.6-1.7-4-4.2-4c-3,0-5.9,1.2-8.3,2.8l3.3-12.4L153.2,1
		c0,0.4-0.3,1-0.3,1.1c0,0.7,1.5,0.4,1.5,1.6c0,0.4-0.1,0.6-0.2,1l-7.4,27.6v0h4.3v0l3.9-14.4c0.3-1.2,0.6-2.3,1.6-3.1
		c1.3-1.1,4-2.3,5.7-2.3c1.4,0,2.2,0.9,2.2,2.2c0,0.7-0.2,1.4-0.4,2.1l-2.9,10.6c-0.1,0.6-0.6,2.1-0.6,2.7c0,1,0.4,1.6,1,2.1h4.4
		c1.3-0.6,2.4-1.5,2.4-1.8c0-0.4-0.5-0.9-0.6-1.2c-0.5,0.5-1.4,1.3-2.1,1.3c-0.4,0-0.8-0.4-0.8-0.9c0-0.4,0.3-1.2,0.4-1.7
		L168.4,16.9L168.4,16.9z"/>
	<path class="st0" d="M194.6,11.7c0.3-0.9,0.2-1-0.1-1c-0.2,0-0.4,0.2-0.6,0.3l-2.4,1.4c-1.6-1.3-2.8-2-5-2
		c-7.3,0-14.4,7.6-14.4,14.8c0,3.2,1.4,5.9,4,7h6.2c1.3-0.5,2.5-1.2,3.6-2.2c0.1,1,0.5,1.7,1.1,2.2h4.5c1.2-0.5,2.2-1.1,2.2-1.7
		c0-0.1-0.3-0.5-0.7-1.1c-0.5,0.5-1.3,0.9-2.1,0.9c-0.6,0-0.9-0.5-0.9-0.9c0-0.7,0.3-1.5,0.4-2.1L194.6,11.7L194.6,11.7z M189.4,15
		l-3.1,11.8c-0.3,1.1-0.6,1.4-1.4,2.1c-1.2,1-2.6,1.7-4.2,1.7c-2.6,0-3.9-2.2-3.9-4.6c0-5.2,4-14.1,10-14.1c1.2,0,2.9,0.5,2.9,2
		C189.6,14.2,189.5,14.6,189.4,15z"/>
	<path class="st0" d="M224.6,32.3c-0.7-0.5-1.2-1.3-1.2-2.4c0-1,0.2-2,0.5-2.9l2.6-9.2c0.2-0.8,0.7-2.5,0.7-3.3c0-1.4-1.1-2-2.4-2
		c-1.8,0-4.1,1.2-5.4,2.6c-0.8,0.8-1,2-1.3,3l-3.8,14.3v0h-4.4v0l3.8-14c0.2-0.8,0.7-2.6,0.7-3.4c0-1.4-0.6-2.5-2.1-2.5
		c-2,0-4.4,1.3-5.7,2.8c-0.8,0.9-1.1,2.2-1.4,3.4l-3.7,13.7v0h-4.3v0l4.6-16.9c0.1-0.4,0.2-0.6,0.2-1.1c0-1.2-1.7-0.8-1.7-1.4
		c0-0.3,0.2-0.9,0.3-1.1l2.6-0.4c2.1-0.3,3.5-0.9,3.7-0.9c0.1,0,0.2,0.1,0.2,0.2c0,0.3-0.2,1.1-0.3,1.4l-0.4,1.4
		c2.2-1.8,5.1-3,7.9-3c2.1,0,4.2,1,4.3,3.3c2.1-2.1,4.8-3.3,7.9-3.3c2.4,0,4.9,1,4.9,3.8c0,1-0.4,2.5-0.6,3.5l-2.8,10.2
		c-0.1,0.4-0.4,1.2-0.4,1.6c0,0.5,0.4,1,0.9,1c0.7,0,1.3-0.7,1.8-1.1c0.1,0.2,0.7,0.8,0.7,1c0,0.7-0.9,1.3-1.8,1.7H224.6z"/>
	<polygon class="st0" points="25.2,32.3 29.5,32.3 29.5,32.3 25.2,32.3 	"/>
	<polygon class="st0" points="121.8,32.3 126,32.3 126,32.3 121.8,32.3 	"/>
	<polygon class="st0" points="146.9,32.3 151.2,32.3 151.2,32.3 146.9,32.3 	"/>
	<polygon class="st0" points="197.1,32.3 201.4,32.3 201.4,32.3 197.1,32.3 	"/>
	<polygon class="st0" points="209.9,32.3 214.2,32.3 214.2,32.3 209.9,32.3 	"/>
</g>
</svg>
