<?xml version="1.0" encoding="UTF-8"?><svg id="Layer_2" xmlns="http://www.w3.org/2000/svg" viewBox="0 0 380.47 52.88"><defs><style>.cls-1{fill:#f3f3f3;stroke-width:0px;}</style></defs><g id="Layer_1-2"><path class="cls-1" d="m43.94,1.13c-2.95,0-1.77,1.33-3.75,1.33-1.21,0-2.47-1.32-4.52-2.46h-15.48C7.68,4.79,0,19.15,0,32.34c0,10.9,6.62,20.54,18.18,20.54,7.36,0,14.13-4.05,18.55-9.72l-2.36-2.2c-3.83,4.04-8.76,8.24-14.65,8.24-8.32,0-11.85-7.43-11.85-14.72C7.87,22.63,14.27,1.43,29.66,1.43c2.06,0,4.42.81,5.89,2.57,3.68,4.49,1.25,10.31,4.86,10.31h1.84l3.53-13.18h-1.84Z"/><path class="cls-1" d="m76.91,26.09c.37-1.48.67-2.58.67-4.12,0-4.27-2.87-6.56-7-6.56-4.93,0-9.64,1.92-13.69,4.64L62.27,0h-10.39c-.08.66-.43,1.58-.43,1.8,0,1.1,2.5.66,2.5,2.57,0,.59-.15,1.03-.3,1.7l-12.21,45.41h7.06l6.33-23.7c.52-1.91,1.03-3.83,2.58-5.08,2.21-1.77,6.55-3.75,9.35-3.75,2.28,0,3.68,1.4,3.68,3.68,0,1.18-.3,2.35-.59,3.46l-4.79,17.52c-.22.95-.95,3.46-.95,4.41,0,3.09,2.28,4.35,5.15,4.35,3.46,0,7.65-3.1,7.65-3.91,0-.58-.81-1.54-1.03-1.98-.88.73-2.2,2.21-3.38,2.21-.66,0-1.25-.67-1.25-1.4,0-.59.44-2.06.59-2.73l5.07-18.47Z"/><path class="cls-1" d="m100.39,49.05c-6.25,0-9.42-4.27-9.42-10.23,0-1.03.08-2.06.22-3.09h8.25c3.83,0,17.3-2.87,17.3-12.73,0-5.6-5.45-7.59-10.31-7.59-11.92,0-22.97,10.97-22.97,22.9,0,8.46,6.85,14.06,15.02,14.06,6.04,0,11.34-2.95,15.68-6.85l-2.14-1.99c-3.16,2.87-7.21,5.52-11.63,5.52Zm5.38-31.21c2.79,0,4.56,1.84,4.56,4.64,0,8.83-13.03,10.53-13.69,10.53h-5c.95-6.33,6.99-15.17,14.13-15.17Z"/><path class="cls-1" d="m131.38,48.69c-1.47,0-1.99-1.18-1.99-2.58,0-.96.37-2.28.59-3.24L141.47,0h-10.1c-.07.66-.43,1.58-.43,1.8,0,1.1,2.5.66,2.5,2.57,0,.59-.07,1.03-.29,1.7l-9.5,35.4c-.44,1.69-.88,3.61-.88,5.37,0,3.32,2.5,5.53,5.67,5.53,3.75,0,7.21-2.36,7.21-3.46,0-.45-.74-1.4-.96-1.84-1.03.66-2.06,1.62-3.31,1.62Z"/><path class="cls-1" d="m157.51,16.3l2.43-9.06c.15-.59-.44-.51-.73-.44l-2.07.37c-4.41.74-4.04.15-5.08,4.12-1.98,7.73-5,3.53-5.81,6.48l-.52,1.84h4.05l-6.25,23.26c-.37,1.25-.89,3.24-.89,4.49,0,3.53,3.09,5.01,6.19,5.01,1.76,0,7.21-1.18,7.21-2.88,0-.36-.66-1.54-.81-1.84-.96.52-2.06,1.04-3.17,1.04-1.32,0-2.57-.74-2.57-2.21,0-.67.44-2.21.59-2.87l6.48-24h6.84l.96-3.31h-6.85Z"/><path class="cls-1" d="m179.89,49.05c-6.26,0-9.42-4.27-9.42-10.23,0-1.03.07-2.06.22-3.09h8.24c3.83,0,17.3-2.87,17.3-12.73,0-5.6-5.45-7.59-10.31-7.59-11.92,0-22.96,10.97-22.96,22.9,0,8.46,6.84,14.06,15.01,14.06,6.04,0,11.34-2.95,15.68-6.85l-2.13-1.99c-3.17,2.87-7.21,5.52-11.63,5.52Zm5.37-31.21c2.8,0,4.57,1.84,4.57,4.64,0,8.83-13.03,10.53-13.7,10.53h-5c.96-6.33,6.99-15.17,14.13-15.17Z"/><path class="cls-1" d="m231.63,48.69c-.88,0-1.47-.81-1.47-1.7,0-.73.44-2.06.59-2.72l4.79-17.15c.36-1.55.88-3.54.88-5.15,0-4.13-3.76-6.56-7.58-6.56-4.94,0-9.28,1.99-13.11,5.01l.67-2.28c.14-.52.51-1.92.51-2.36,0-.15-.07-.29-.29-.29-.3,0-2.65,1.03-6.04,1.47l-4.86.74c-.14.44-.44,1.32-.44,1.84,0,1.1,2.87.66,2.87,2.57,0,.59-.07.89-.29,1.55l-7.44,27.82h6.92l5.97-22.15c.58-2.07.95-4.42,2.72-5.89,2.35-2.06,6.4-4.35,9.64-4.35,2.28,0,3.61,1.48,3.61,3.76,0,1.18-.22,1.84-.59,3.02l-4.49,16.78c-.44,1.54-.81,3.16-.81,4.78,0,3.24,2.28,4.94,5.37,4.94,2.36,0,7.44-2.21,7.44-4.2,0-.37-.81-1.4-.96-1.69-.81.66-2.5,2.21-3.61,2.21Z"/><path class="cls-1" d="m277.12,26.09c.37-1.48.67-2.58.67-4.12,0-4.27-2.88-6.56-7-6.56-4.93,0-9.64,1.92-13.69,4.64l5.38-20.05h-10.39c-.08.66-.44,1.58-.44,1.8,0,1.1,2.51.66,2.51,2.57,0,.59-.15,1.03-.3,1.7l-12.22,45.41h7.07l6.33-23.7c.52-1.91,1.03-3.83,2.58-5.08,2.2-1.77,6.55-3.75,9.35-3.75,2.28,0,3.68,1.4,3.68,3.68,0,1.18-.3,2.35-.59,3.46l-4.79,17.52c-.22.95-.95,3.46-.95,4.41,0,3.09,2.28,4.35,5.15,4.35,3.46,0,7.65-3.1,7.65-3.91,0-.58-.81-1.54-1.03-1.98-.88.73-2.21,2.21-3.38,2.21-.67,0-1.25-.67-1.25-1.4,0-.59.44-2.06.58-2.73l5.08-18.47Z"/><path class="cls-1" d="m320.26,17.62c.44-1.47.29-1.69-.08-1.69-.29,0-.66.29-.95.44l-3.98,2.28c-2.65-2.06-4.56-3.24-8.17-3.24-12.07,0-23.77,12.44-23.77,24.44,0,7.07,3.97,12.52,11.4,12.52,4.27,0,8.03-1.62,11.27-4.49.29,2.94,2.06,4.49,5,4.49s7.66-2.14,7.66-3.68c0-.15-.52-.89-1.11-1.85-.81.81-2.21,1.48-3.46,1.48-.95,0-1.4-.74-1.4-1.55,0-1.18.45-2.43.74-3.53l6.85-25.62Zm-8.62,5.38l-5.15,19.43c-.51,1.76-.96,2.28-2.35,3.46-1.99,1.69-4.2,2.8-6.92,2.8-4.35,0-6.41-3.69-6.41-7.66,0-8.54,6.55-23.19,16.42-23.19,1.91,0,4.78.81,4.78,3.32,0,.58-.22,1.25-.37,1.84Z"/><path class="cls-1" d="m375.76,48.69c-.89,0-1.48-.81-1.48-1.7,0-.73.45-2.06.59-2.72l4.57-16.78c.44-1.62,1.03-4.2,1.03-5.82,0-4.64-4.12-6.26-8.1-6.26-5.01,0-9.5,1.92-12.96,5.45-.07-3.83-3.6-5.45-7.06-5.45-4.71,0-9.42,1.92-13.03,4.94l.59-2.29c.15-.51.51-1.91.51-2.35,0-.15-.07-.3-.29-.3-.29,0-2.65,1.03-6.04,1.48l-4.34.73c-.15.44-.44,1.33-.44,1.84,0,1.11,2.8.44,2.8,2.36,0,.81-.15,1.1-.3,1.76l-7.51,27.9h7.07l6.11-22.52c.51-1.92,1.03-4.12,2.36-5.6,2.2-2.43,6.18-4.63,9.42-4.63,2.43,0,3.38,1.91,3.38,4.12,0,1.25-.81,4.27-1.17,5.59l-6.19,23.04h7.14l6.33-23.63c.44-1.69.89-3.6,2.14-4.93,2.06-2.13,5.89-4.19,8.83-4.19,2.14,0,3.97,1.03,3.97,3.31,0,1.4-.8,4.05-1.17,5.45l-4.2,15.16c-.44,1.54-.81,3.16-.81,4.78,0,3.24,2.28,4.94,5.38,4.94,1.76,0,6.99-1.48,6.99-3.76,0-.37-.89-1.4-1.11-1.69-.81.66-1.91,1.77-3.01,1.77Z"/></g></svg>